<svg id="Capa_1" enable-background="new 0 0 510 510" height="512" viewBox="0 0 510 510" width="512" xmlns="http://www.w3.org/2000/svg"><g><path d="m119.999 287.75v196.592l-24.87 8.29c-3.93 1.31-6.053 5.557-4.744 9.487 1.31 3.93 5.559 6.054 9.487 4.744l29.998-10c3.063-1.021 5.128-3.887 5.128-7.115v-201.998z" fill="#85453d"/><path d="m194.999 287.75v196.592l24.87 8.29c3.93 1.31 6.053 5.557 4.744 9.487-1.31 3.93-5.559 6.054-9.487 4.744l-29.998-10c-3.063-1.021-5.128-3.887-5.128-7.115v-201.998z" fill="#60312c"/><path d="m97.5 180.25c-45.49 0-82.5-37.009-82.5-82.5 0-4.142-3.357-7.5-7.5-7.5s-7.5 3.358-7.5 7.5c0 53.762 43.738 97.5 97.5 97.5h60v-15z" fill="#ff6b8a"/><circle cx="157.499" cy="227.75" fill="#353535" r="7.5"/><circle cx="157.499" cy="197.75" fill="#353535" r="7.5"/><path d="m157.499 377.75h22.5l22.5-25v-50h-75z" fill="#ff1b7c"/><path d="m157.499 377.75h-22.5l-22.5-25v-50h45z" fill="#ff4996"/><path d="m142.499 242.75 15 90c24.853 0 45-20.147 45-45z" fill="#60312c"/><path d="m112.499 287.75c0 24.853 20.147 45 45 45v-90z" fill="#85453d"/><path d="m179.999 167.75h-22.5l-30 60 30 60h45v-105z" fill="#fff0d3"/><path d="m134.999 167.75-22.5 15v105h45v-120z" fill="#fff"/><path d="m117.506 167.75c-11.046 0-20.006 8.954-20.006 20v190h37.5v-210z" fill="#ff6b8a"/><path d="m217.493 187.75c0-11.046-8.954-20-20-20h-17.494v210h37.494z" fill="#ff4996"/><circle cx="157.499" cy="25.25" fill="#a45e43" r="22.5"/><path d="m157.499 47.75v100l45-45v-10c0-24.86-20.15-45-45-45z" fill="#ffb4a9"/><path d="m157.499 47.75c-24.86 0-45 20.14-45 45v10l60 45v-55c0-24.86-6.72-45-15-45z" fill="#ffd9d4"/><path d="m172.499 102.75-15 65c24.85 0 45-20.15 45-45v-20z" fill="#85453d"/><path d="m172.499 102.75v20c0 24.85-6.72 45-15 45-24.86 0-45-20.15-45-45v-20h30c2.45-5.87 8.24-10 15-10s12.55 4.13 15 10z" fill="#a45e43"/><path d="m442.5 227.75h-60l-30 60h90z" fill="#30b054"/><path d="m307.5 227.75h75v60h-75z" fill="#80bf63"/><path d="m307.5 257.75 30 60h75l30-60z" fill="#999"/><circle cx="375" cy="287.75" fill="#353535" r="7.5"/><path d="m442.5 182.75-11.806 72.5 11.806 62.5h30v-135z" fill="#353535"/><path d="m412.5 182.75h30v135h-30z" fill="#4f4f4f"/><path d="m307.5 182.75-11.806 72.5 11.806 62.5h30v-135z" fill="#353535"/><path d="m277.5 182.75h30v135h-30z" fill="#4f4f4f"/><circle cx="375" cy="152.75" fill="#ffcb63" r="7.5"/><circle cx="405" cy="152.75" fill="#ffa754" r="7.5"/><circle cx="345" cy="152.75" fill="#ffcb63" r="7.5"/><path d="m480 347.75-30 73 30 49h15v30c0 4.142 3.358 7.5 7.5 7.5s7.5-3.358 7.5-7.5v-152z" fill="#ff8646"/><path d="m480 469.75h-105l-22.5-64 22.5-58h105z" fill="#ffa754"/><path d="m405 420.75c-4.142 0-7.5-3.358-7.5-7.5v-15c0-4.142 3.358-7.5 7.5-7.5s7.5 3.358 7.5 7.5v15c0 4.142-3.358 7.5-7.5 7.5z" fill="#ff8646"/><path d="m375 347.75h-120-15v152c0 4.142 3.358 7.5 7.5 7.5s7.5-3.358 7.5-7.5v-30h120z" fill="#ffcb63"/><path d="m345 420.75c-4.142 0-7.5-3.358-7.5-7.5v-15c0-4.142 3.358-7.5 7.5-7.5s7.5 3.358 7.5 7.5v15c0 4.142-3.358 7.5-7.5 7.5z" fill="#ffa754"/></g></svg>