<svg id="Capa_1" enable-background="new 0 0 504.5 504.5" height="512" viewBox="0 0 504.5 504.5" width="512" xmlns="http://www.w3.org/2000/svg"><g><path d="m188.501 285v196.592l-24.87 8.29c-3.93 1.31-6.053 5.557-4.744 9.487 1.31 3.93 5.559 6.054 9.487 4.744l29.998-10c3.063-1.021 5.128-3.887 5.128-7.115v-201.998z" fill="#ff6b8a"/><path d="m263.501 285v196.592l24.87 8.29c3.93 1.31 6.053 5.557 4.744 9.487-1.31 3.93-5.559 6.054-9.487 4.744l-29.998-10c-3.063-1.021-5.128-3.887-5.128-7.115v-201.998z" fill="#ff4128"/><path d="m181 177.5c-45.49 0-82.5-37.009-82.5-82.5 0-4.142-3.357-7.5-7.5-7.5s-7.5 3.358-7.5 7.5c0 53.762 43.738 97.5 97.5 97.5h45.001v-15z" fill="#85453d"/><path d="m380.385 38.916c-1.956-1.41-4.47-1.792-6.757-1.031l-45 15c-3.063 1.021-5.128 3.887-5.128 7.115v64.595l-9.87 3.291c-3.93 1.31-6.053 5.558-4.744 9.487 1.311 3.929 5.558 6.051 9.487 4.743l14.997-5.004c2.979-.993 5.13-3.798 5.13-7.112v-34.594l30-10v24.189l-9.87 3.291c-3.93 1.31-6.053 5.558-4.744 9.487 1.311 3.929 5.558 6.051 9.487 4.743l14.997-5.004c2.979-.993 5.13-3.798 5.13-7.112v-70c0-2.411-1.159-4.675-3.115-6.084zm-41.885 40.678v-14.189l30-10v14.189z" fill="#ccc"/><path d="m406 82.5c-4.142 0-7.5 3.357-7.5 7.5v49.595l-9.87 3.29c-3.93 1.31-6.053 5.558-4.744 9.487 1.311 3.93 5.557 6.052 9.487 4.743l14.999-5.005c2.978-.993 5.127-3.798 5.127-7.111v-54.999c.001-4.143-3.357-7.5-7.499-7.5z" fill="#b3b3b3"/><path d="m226 225v105c24.853 0 45-20.147 45-45v-30z" fill="#ff4128"/><path d="m241 285v-60l-60 30v30c0 24.853 20.147 45 45 45 8.284 0 15-20.147 15-45z" fill="#ff6b8a"/><path d="m221 185 20 70h30v-38.043z" fill="#60312c"/><path d="m181 216.957v38.043h60v-70z" fill="#85453d"/><path d="m251 165h-30l20 52.201c3.317 4.715 8.797 7.799 15 7.799s11.682-3.084 15-7.799v-32.201c0-11.046-8.954-20-20-20z" fill="#ffd9d4"/><path d="m221 165h-20c-11.046 0-20 8.954-20 20v32.201c3.318 4.715 8.797 7.799 15 7.799s11.683-3.084 15-7.799c3.317 4.715 8.797 7.799 15 7.799s11.682-3.084 15-7.799v-32.201c0-11.046-8.954-20-20-20z" fill="#fff0d3"/><path d="m225.999 45c24.853 0 45-20.147 45-45-24.853 0-45 20.147-45 45z" fill="#ff4996"/><path d="m180.999 0c0 24.853 20.147 45 45 45 0-24.853-20.147-45-45-45z" fill="#ff6b8a"/><path d="m226.001 45v90c24.853 0 45-20.147 45-45s-20.147-45-45-45z" fill="#60312c"/><path d="m241.001 90c0-24.853-6.716-45-15-45-24.853 0-45 20.147-45 45s20.147 45 45 45c8.285 0 15-20.147 15-45z" fill="#85453d"/><path d="m391 185-20 35 20 35h30v-70z" fill="#ffa754"/><path d="m366 185c0-11.046-8.954-20-20-20h-45v90h90v-70z" fill="#ffcb63"/></g></svg>