<svg id="Capa_1" enable-background="new 0 0 504.5 504.5" height="512" viewBox="0 0 504.5 504.5" width="512" xmlns="http://www.w3.org/2000/svg"><g><path d="m214.75 285v196.592l-24.87 8.29c-3.93 1.31-6.053 5.557-4.744 9.487 1.31 3.93 5.559 6.054 9.487 4.744l29.998-10c3.063-1.021 5.128-3.887 5.128-7.115v-201.998z" fill="#fff0d3"/><path d="m289.75 285v196.592l24.87 8.29c3.93 1.31 6.053 5.557 4.744 9.487-1.31 3.93-5.559 6.054-9.487 4.744l-29.998-10c-3.063-1.021-5.128-3.887-5.128-7.115v-201.998z" fill="#ffd9d4"/><path d="m117.25 177.5c-4.136 0-7.5-3.364-7.5-7.5s3.364-7.5 7.5-7.5h15c4.142 0 7.5-3.358 7.5-7.5s-3.358-7.5-7.5-7.5h-15c-12.407 0-22.5 10.093-22.5 22.5s10.093 22.5 22.5 22.5h135v-15z" fill="#ff6b8a"/><path d="m402.25 87.5c-4.142 0-7.5 3.358-7.5 7.5 0 45.491-37.009 82.5-82.5 82.5h-60v15h60c53.762 0 97.5-43.738 97.5-97.5 0-4.142-3.358-7.5-7.5-7.5z" fill="#ff4996"/><path d="m147.25 20h-15l-20 52.5 20 52.5h15c8.25 0 14.999-6.75 15-14.999v-75.002c-.001-8.249-6.75-14.999-15-14.999z" fill="#ccc"/><path d="m117.25 20c-8.25 0-15 6.75-15 15v75c0 8.25 6.75 15 15 15h15v-105z" fill="#ebebeb"/><circle cx="132.25" cy="50" fill="#353535" r="7.5"/><path d="m312.25 230v-45c0-11.046-8.954-20-20-20h-30l-10 120 45-30c8.964-4.993 15-14.315 15-25z" fill="#ff4996"/><path d="m262.25 165h-50c-11.045 0-20 8.954-20 20v45c0 10.685 6.036 20.007 15 25l45 30 15-30c8.964-4.993 15-14.315 15-25v-45c0-11.046-8.954-20-20-20z" fill="#ff6b8a"/><path d="m282.25 345h30v-65c0-10.685-6.036-20.007-15-25h-35z" fill="#b3b3b3"/><path d="m192.25 280v65h90v-65c0-10.685-6.036-20.007-15-25h-60c-8.964 4.993-15 14.315-15 25z" fill="#ccc"/><circle cx="252.25" cy="195" fill="#fff" r="7.5"/><circle cx="252.25" cy="225" fill="#fff" r="7.5"/><path d="m284.018 90v31.258c3.416 8.075 11.412 13.742 20.732 13.742 12.426 0 22.5-10.074 22.5-22.5s-10.074-22.5-22.5-22.5z" fill="#353535"/><path d="m266.342 74.547-14.092 60.453c24.853 0 45-20.147 45-45z" fill="#ffd9d4"/><path d="m267.25 90c0-5.429-.321-10.634-.908-15.453l-41.095-20.546c-10.927 8.21-17.997 21.278-17.997 35.999 0 24.853 20.147 45 45 45 8.284 0 15-20.147 15-45z" fill="#fff0d3"/><path d="m252.25 45 14.899 39.832c9.413 3.341 19.542 5.168 30.101 5.168 0-24.853-20.147-45-45-45z" fill="#353535"/><path d="m252.25 45c-10.132 0-19.481 3.35-27.003 9.002 10.532 14.02 25.066 24.856 41.901 30.831-.854-22.418-7.197-39.833-14.898-39.833z" fill="#4f4f4f"/><path d="m252.25 45c24.853 0 45-20.147 45-45-24.853 0-45 20.147-45 45z" fill="#ff4128"/><path d="m207.25 0c0 24.853 20.147 45 45 45 0-24.853-20.147-45-45-45z" fill="#ff6b8a"/></g></svg>