<svg id="Capa_1" enable-background="new 0 0 504.5 504.5" height="512" viewBox="0 0 504.5 504.5" width="512" xmlns="http://www.w3.org/2000/svg"><g><path d="m151 285v196.592l-24.87 8.29c-3.93 1.31-6.053 5.557-4.744 9.487 1.31 3.93 5.559 6.054 9.487 4.744l29.998-10c3.063-1.021 5.128-3.887 5.128-7.115v-201.998z" fill="#fff0d3"/><path d="m226 285v196.592l24.87 8.29c3.93 1.31 6.053 5.557 4.744 9.487-1.31 3.93-5.559 6.054-9.487 4.744l-29.998-10c-3.063-1.021-5.128-3.887-5.128-7.115v-201.998z" fill="#ffd9d4"/><path d="m53.5 177.5c-4.136 0-7.5-3.364-7.5-7.5s3.364-7.5 7.5-7.5h15c4.142 0 7.5-3.357 7.5-7.5s-3.358-7.5-7.5-7.5h-15c-12.407 0-22.5 10.094-22.5 22.5s10.093 22.5 22.5 22.5h135v-15z" fill="#ff6b8a"/><path d="m383.5 0c-44.356 0-81.215 32.089-88.636 74.318l-31.364 15.682 31.364 15.682c7.421 42.229 44.28 74.318 88.636 74.318 49.706 0 90-40.294 90-90s-40.294-90-90-90z" fill="#fff0d3"/><path d="m408.273 45c-3.03 0-5.96.42-8.741 1.196l-16.032 103.804s57.5-27.014 57.5-72.5c0-17.949-14.778-32.5-32.727-32.5z" fill="#eb1b00"/><path d="m411 77.5c0-14.924-4.887-27.489-11.469-31.304-6.334 1.767-11.889 5.402-16.031 10.278-5.961-7.017-14.844-11.474-24.773-11.474-17.949 0-32.727 14.551-32.727 32.5 0 45.486 57.5 72.5 57.5 72.5s27.5-27.014 27.5-72.5z" fill="#ff4128"/><path d="m214.75 15c0-8.284-6.716-15-15-15-4.486 0-8.501 1.98-11.25 5.101-2.749-3.121-6.764-5.101-11.25-5.101-8.284 0-15 6.716-15 15-8.284 0-15 6.716-15 15s6.716 15 15 15h52.5c8.284 0 15-6.716 15-15s-6.716-15-15-15z" fill="#ff8d7e"/><path d="m202.592 74.547-14.092 60.453c24.853 0 45-20.147 45-45z" fill="#ffd9d4"/><path d="m203.5 90c0-5.429-.321-10.634-.908-15.453l-41.095-20.546c-10.927 8.211-17.997 21.279-17.997 35.999 0 24.853 20.147 45 45 45 8.284 0 15-20.147 15-45z" fill="#fff0d3"/><path d="m188.5 45 14.899 39.832c9.413 3.341 19.542 5.168 30.101 5.168 0-24.853-20.147-45-45-45z" fill="#ff6b8a"/><path d="m188.5 45c-10.132 0-19.481 3.35-27.003 9.002 10.532 14.02 25.066 24.856 41.901 30.831-.854-22.418-7.197-39.833-14.898-39.833z" fill="#ff8d7e"/><path d="m228.5 165h-30v120l35-30c8.028-6.031 13.609-15.138 15-25.571v-44.429c0-11.046-8.954-20-20-20z" fill="#ff4128"/><path d="m198.5 165h-50c-11.046 0-20 8.954-20 20v44.429c1.391 10.433 6.972 19.54 15 25.571l30 30 30-30c8.028-6.031 13.609-15.138 15-25.571v-44.429c0-11.046-8.954-20-20-20z" fill="#ff6b8a"/><path d="m248.249 289.177c-1.186-13.05-6.555-24.888-14.749-34.177h-30l30 202h30z" fill="#ff6b8a"/><path d="m203.5 255h-60c-8.194 9.289-13.563 21.127-14.749 34.177l-15.251 167.823h120l-15.251-167.823c-1.186-13.05-6.555-24.888-14.749-34.177z" fill="#ff8d7e"/><path d="m83.5 20h-15l-20 52.5 20 52.5h15c8.25 0 14.999-6.75 15-14.999v-75.002c-.001-8.249-6.75-14.999-15-14.999z" fill="#ccc"/><path d="m53.5 20c-8.25 0-15 6.75-15 15v75c0 8.25 6.75 15 15 15h15v-105z" fill="#ebebeb"/><circle cx="68.5" cy="50" fill="#353535" r="7.5"/></g></svg>